<svg viewBox="0 0 26.0495 24.9994" xmlns="http://www.w3.org/2000/svg" xmlns:xlink="http://www.w3.org/1999/xlink" width="26.049500" height="24.999382" fill="none" customFrame="#000000">
	<g id="Group">
		<path id="Vector" d="M11.875 24.9994L6.25 24.9994C4.87125 24.9994 3.75 23.8781 3.75 22.4994L3.75 13.7494L1.25 13.7494C0.54875 13.7494 0 13.2006 0 12.4994C0 12.1481 0.1525 11.8006 0.4075 11.5719L12.6988 0.16686C12.9388 -0.0556403 13.31 -0.0556403 13.5488 0.16686L17.5 3.82936L17.5 1.87436C17.5 1.52936 17.78 1.24936 18.125 1.24936L21.875 1.24936C22.22 1.24936 22.5 1.52936 22.5 1.87436L22.5 8.46436L25.85 11.5781C26.1025 11.8131 26.1175 12.2081 25.8825 12.4619C25.6475 12.7144 25.2525 12.7306 24.9988 12.4931L21.4488 9.19311C21.3225 9.07686 21.25 8.91061 21.25 8.73686L21.25 2.49936L18.75 2.49936L18.75 5.26186C18.75 5.51061 18.6025 5.73561 18.375 5.83436C18.1463 5.93311 17.8813 5.88811 17.7 5.71936L13.125 1.47686L1.25 12.4944L4.375 12.4994C4.72 12.4994 5 12.7794 5 13.1244L5 22.4994C5 23.1894 5.56125 23.7494 6.25 23.7494L11.875 23.7494C12.22 23.7494 12.5 24.0294 12.5 24.3744C12.5 24.7194 12.22 24.9994 11.875 24.9994Z" fill="rgb(0,0,0)" fill-rule="nonzero" />
	</g>
</svg>
